<?xml version="1.0" encoding="UTF-8"?><svg id="Layer_2" xmlns="http://www.w3.org/2000/svg" xmlns:xlink="http://www.w3.org/1999/xlink" viewBox="0 0 236.81 98"><defs><style>.cls-1{fill:url(#linear-gradient);}.cls-2{fill:#f15a29;}</style><linearGradient id="linear-gradient" x1="118.4" y1="-13.24" x2="118.4" y2="92.39" gradientUnits="userSpaceOnUse"><stop offset=".14" stop-color="#f15a29" stop-opacity="0"/><stop offset=".26" stop-color="#f15a29" stop-opacity=".18"/><stop offset=".46" stop-color="#f15a29" stop-opacity=".47"/><stop offset=".65" stop-color="#f15a29" stop-opacity=".7"/><stop offset=".8" stop-color="#f15a29" stop-opacity=".86"/><stop offset=".92" stop-color="#f15a29" stop-opacity=".96"/><stop offset="1" stop-color="#f15a29"/></linearGradient></defs><g id="Layer_1-2"><g><polygon class="cls-1" points="236.81 0 177.61 40.5 146.18 62 90.64 62 59.21 40.5 0 0 236.81 0"/><g><path class="cls-2" d="M98.4,70.74v6.51c0,1.06-.87,1.93-1.94,1.93h-6.5c-1.07,0-1.94-.87-1.94-1.93v-6.51c0-1.07,.87-1.93,1.94-1.93h6.5c1.07,0,1.94,.86,1.94,1.93Z"/><path class="cls-2" d="M149.89,64h-62.96c-1.94,0-3.52,1.58-3.52,3.52v26.96c0,1.94,1.58,3.52,3.52,3.52h62.96c1.94,0,3.52-1.58,3.52-3.52v-26.96c0-1.94-1.58-3.52-3.52-3.52Zm-49.49,13.25c0,2.17-1.77,3.93-3.94,3.93h-6.5c-2.17,0-3.94-1.76-3.94-3.93v-6.51c0-2.17,1.77-3.93,3.94-3.93h6.5c.75,0,1.45,.21,2.05,.58,.09,.05,.17,.1,.25,.17,.99,.71,1.64,1.87,1.64,3.18v6.51Z"/></g><path class="cls-2" d="M98.4,70.74v6.51c0,1.06-.87,1.93-1.94,1.93h-6.5c-1.07,0-1.94-.87-1.94-1.93v-6.51c0-1.07,.87-1.93,1.94-1.93h6.5c1.07,0,1.94,.86,1.94,1.93Z"/></g></g></svg>